<?xml version="1.0" standalone="no"?><!DOCTYPE svg PUBLIC "-//W3C//DTD SVG 1.1//EN" "http://www.w3.org/Graphics/SVG/1.1/DTD/svg11.dtd"><svg t="1605251012832" class="icon" viewBox="0 0 1024 1024" version="1.1" xmlns="http://www.w3.org/2000/svg" p-id="8125" xmlns:xlink="http://www.w3.org/1999/xlink" width="82" height="82"><defs><style type="text/css"></style></defs><path d="M512 511.744128m-511.744128 0a511.744128 511.744128 0 1 0 1023.488256 0 511.744128 511.744128 0 1 0-1023.488256 0Z" fill="#D9F2FF" p-id="8126"></path><path d="M631.406963 724.970848s248.110611 58.594703 272.930202 119.406963c0 0-328.991771 371.099783-750.558055 34.116275 0 0 5.705947-93.905047 289.98834-153.523238h187.639513z" fill="#FFFFFF" p-id="8127"></path><path d="M895.808096 844.377811s-151.22039 187.554223-375.279027 179.110445c0 0-217.815359 17.31401-366.749959-153.523239l8.529069-8.529068z" fill="#FFFFFF" p-id="8128"></path><path d="M767.334733 463.554889c0 141.497251-108.822389 256.213227-243.078461 256.213227s-243.078461-114.715975-243.078461-256.213227 108.830918-256.213227 243.078461-256.213226 243.078461 114.715975 243.078461 256.213226" fill="#302F2F" p-id="8129"></path><path d="M439.502915 658.870565h172.184841v272.930201H439.502915z" fill="#FED7C2" p-id="8130"></path><path d="M674.325237 515.411628l23.881393 10.320173a21.220323 21.220323 0 0 0 27.745061-11.17308l15.164684-35.395636a34.116275 34.116275 0 0 0-17.808696-44.60703 47.123105 47.123105 0 0 0-61.861336 24.819591l-4.921272 11.428952a34.056572 34.056572 0 0 0 17.808695 44.60703m-283.65977 0l-23.881392 10.320173a21.237381 21.237381 0 0 1-27.75359-11.17308l-15.156155-35.395636a34.116275 34.116275 0 0 1 17.808695-44.60703 47.123105 47.123105 0 0 1 61.861336 24.819591l4.921273 11.428952a34.056572 34.056572 0 0 1-17.808696 44.60703z" fill="#FCE5DB" p-id="8131"></path><path d="M439.502915 660.491088v264.230551h179.110445V696.398467c-1.705814 52.794936-8.529069 130.15359-8.529069 130.15359s-37.655839 28.48709-74.202898 28.48709c-23.028486 0-45.656105-11.343662-57.997668-48.445111-19.616858-58.509412-15.881126-98.084291-0.784675-123.842079a173.233916 173.233916 0 0 1-37.596135-22.260869" fill="#FED7C2" p-id="8132"></path><path d="M532.256538 694.18091c-97.154623 0-175.912044-104.481093-175.912044-201.797768V325.895719a118.767283 118.767283 0 0 1 118.34083-118.554056H599.422955a102.425587 102.425587 0 0 1 102.348826 102.519406v188.918874c0 93.734466-75.908712 195.400966-169.515243 195.400967" fill="#FFCEAA" p-id="8133"></path><path d="M532.256538 694.18091c-97.154623 0-175.912044-104.481093-175.912044-201.797768V325.895719a118.767283 118.767283 0 0 1 118.34083-118.554056H599.422955a102.425587 102.425587 0 0 1 102.348826 102.519406v188.918874c0 93.734466-75.908712 195.400966-169.515243 195.400967" fill="#FFE3CD" p-id="8134"></path><path d="M709.320007 272.75962L688.978178 374.767283s64.155656 2.388139 75.482258 12.793603c9.296685 8.614359-2.806064-52.368482-55.140429-114.801266z m-369.308679-1.449942l20.341829 102.007663s-64.155656 2.302849-75.482259 12.793604c-16.870498 15.522905 1.484058-50.83325 55.106313-114.801267zM708.168582 375.534899H340.35249a8.000267 8.000267 0 0 1-8.000266-7.932034V234.634683c0-49.298018 40.29985-64.053307 89.555222-64.053307h204.697651c49.263901 0 89.555222 14.755289 89.555223 64.053307V367.602865a7.991737 7.991737 0 0 1-7.991738 7.932034z" fill="#FFFFFF" p-id="8135"></path><path d="M439.502915 660.491088v264.230551h179.110445V696.398467c-1.705814 52.794936-8.529069 130.15359-8.529069 130.15359s-37.655839 28.48709-74.202898 28.48709c-23.028486 0-45.656105-11.343662-57.997668-48.445111-19.616858-58.509412-15.881126-98.084291-0.784675-123.842079a173.233916 173.233916 0 0 1-37.596135-22.260869" fill="#FED7C2" p-id="8136"></path><path d="M439.502915 733.670498v11.770115h-10.71251L503.470931 997.901049h51.174413z" fill="#78C8EF" p-id="8137"></path><path d="M618.61336 745.440613v-11.770115L503.470931 997.901049h51.174413l74.680526-252.460436H618.61336z" fill="#91D6F2" p-id="8138"></path><path d="M438.709712 732.561719L529.058138 1014.532734l-158.478628-90.152258a12.230685 12.230685 0 0 1 0.852907-16.375812l34.389206-34.457438a10.431051 10.431051 0 0 0-1.577878-16.034649l-55.797168-37.272031a9.151691 9.151691 0 0 1-0.63968-14.755289z m180.458037 0L529.058138 1014.532734l158.231284-90.152258a12.213627 12.213627 0 0 0-0.852907-16.375812l-34.389205-34.457438a10.431051 10.431051 0 0 1 1.586406-16.034649l55.788639-37.272031a9.134633 9.134633 0 0 0 0.639681-14.755289z" fill="#F2F2F2" p-id="8139"></path><path d="M567.438947 277.791771H477.883725v-25.587207h89.555222v25.587207z m-31.984008-57.656505v89.725803h-25.587206V220.135266h25.587206z" fill="#FC8181" p-id="8140"></path></svg>