<?xml version="1.0" standalone="no"?><!DOCTYPE svg PUBLIC "-//W3C//DTD SVG 1.1//EN" "http://www.w3.org/Graphics/SVG/1.1/DTD/svg11.dtd"><svg t="1605251019667" class="icon" viewBox="0 0 1024 1024" version="1.1" xmlns="http://www.w3.org/2000/svg" p-id="8280" xmlns:xlink="http://www.w3.org/1999/xlink" width="82" height="82"><defs><style type="text/css"></style></defs><path d="M512 510.680741m-510.680741 0a510.680741 510.680741 0 1 0 1021.361482 0 510.680741 510.680741 0 1 0-1021.361482 0Z" fill="#D9F2FF" p-id="8281"></path><path d="M458.523215 930.20497h176.678514m20.42723-307.344692c-0.953271 1.106475-1.915053 2.127836-2.893858 3.234311a8.230471 8.230471 0 0 1 1.387349 4.085446c1.702269 47.067742 1.480974 249.467542 1.480974 249.467542a68.022675 68.022675 0 0 1-22.938076 9.702934h22.980633V622.860278m-244.633098-5.532375v272.022608h176.184856c-37.994647-8.511346-89.190391-40.173552-146.7356-129.372454-36.717945-56.940903-32.062239-94.901504-7.59212-119.073727a229.287142 229.287142 0 0 1-21.831602-23.576427m221.669488 272.022608h-45.510166a102.553204 102.553204 0 0 0 23.261508 2.723631 89.164857 89.164857 0 0 0 22.248658-2.723631m20.069753-263.255922c-1.574599 1.787383-3.183243 3.489652-4.817422 5.191921a152.259463 152.259463 0 0 1-95.50581 53.19591 114.698895 114.698895 0 0 1-77.104281-13.703266 176.346571 176.346571 0 0 1-42.480126-29.874824c-24.470119 24.172222-29.125825 62.132824 7.59212 119.073727 57.545208 89.198903 108.740953 120.861109 146.7356 129.372454h45.510166a68.022675 68.022675 0 0 0 22.938076-9.702934s0.212784-202.399801-1.480974-249.467542a8.230471 8.230471 0 0 0-1.387349-4.085446m34.896517-130.393816l25.346788 10.894522a22.572089 22.572089 0 0 0 29.483301-11.83077l16.111977-37.535035a36.258333 36.258333 0 0 0-18.929232-47.408195 50.038201 50.038201 0 0 0-65.724612 26.300058l-5.217455 12.171225a36.232799 36.232799 0 0 0 18.929233 47.408195m-314.91979 0l-25.355299 10.894522a22.563577 22.563577 0 0 1-29.47479-11.83077l-16.111978-37.535035a36.266844 36.266844 0 0 1 18.920722-47.408195 50.004156 50.004156 0 0 1 65.707588 26.300058l5.234478 12.171225a36.24131 36.24131 0 0 1-18.920721 47.408195m164.013631 189.717895c-103.217089 0-175.444369-117.371457-186.875106-214.230571V294.407447a126.1807 126.1807 0 0 1 125.712576-125.797689h132.513141A108.817555 108.817555 0 0 1 716.842557 277.46987v200.527304c-16.469454 100.263652-80.610955 207.421494-180.074541 207.421494m162.396476-141.373451a288.619732 288.619732 0 0 1-43.484465 78.134153v0.680908a239.296484 239.296484 0 0 0 43.484465-78.815061m17.678065-221.294988v83.155847c1.055407-0.085113 2.119325-0.085113 3.174732-0.085113h0.936248a604.033181 604.033181 0 0 0-4.11098-83.070734M655.680027 622.17937c-1.004339 1.191588-2.0257 2.46829-3.055574 3.744992a0.289386 0.289386 0 0 1 0.161716 0.170227c0.978805-1.106475 1.940587-2.127836 2.893858-3.234311v-0.680908m-180.32137 48.599784a114.698895 114.698895 0 0 0 77.10428 13.703266 135.883634 135.883634 0 0 1-15.694921 0.936248 138.190209 138.190209 0 0 1-61.409359-14.639514m177.265796-44.854792c-1.523531 1.787383-3.081107 3.574765-4.655706 5.362148 1.634178-1.702269 3.242823-3.404538 4.817422-5.191921a0.289386 0.289386 0 0 0-0.161716-0.170227m67.392836-220.103399c-1.055407 0-2.119325 0-3.174732 0.085113v59.068739a556.71861 556.71861 0 0 0 4.11098-59.153852h-0.936248M445.568947 226.657136s70.516499 293.045632-34.522018 378.669769a183.48759 183.48759 0 0 0 64.311728 65.452249 138.190209 138.190209 0 0 0 61.409359 14.639514 135.883634 135.883634 0 0 0 15.694921-0.936248 174.984756 174.984756 0 0 0 75.750977-35.662538 187.249605 187.249605 0 0 0 19.780367-17.533372c1.574599-1.787383 3.132175-3.574765 4.655707-5.362148 1.029873-1.276702 2.051234-2.553404 3.055573-3.744992a288.619732 288.619732 0 0 0 43.484465-78.134153 398.194797 398.194797 0 0 0 17.678065-79.070402V322.750229c-0.340454-2.723631-0.561749-4.170559-0.561749-4.17056l-270.711861-91.922533m-32.258 479.103649H399.054443l73.05288 292.449838H608.007979z m240.113573 0l-194.799169 292.449838h135.91768l73.044368-292.449838h-14.162879z m121.176029 210.826032h-20.42723v-23.831768h20.42723v23.831768z m-4.749331 10.894523H758.999252v-21.789045h10.8775v21.789045z m-3.404539-17.703599l-2.0257 2.042723-2.042723-2.042723 2.042723-2.042723 2.0257 2.042723m0 13.618153l-2.0257 2.042723-2.042723-2.042723 2.042723-2.042723 2.0257 2.042723M411.080974 699.036822l125.04018 315.941152-192.356413-116.520323a12.954268 12.954268 0 0 1 0.851135-17.363145l36.539207-36.598787a11.064749 11.064749 0 0 0-1.702269-17.022691l-59.281523-39.492644a9.702934 9.702934 0 0 1-0.672396-15.660876z m244.607564 0l-125.031668 315.941152 192.356412-116.520323a12.945757 12.945757 0 0 0-0.851134-17.363145l-36.530696-36.598787a11.064749 11.064749 0 0 1 1.702269-17.022691l59.273012-39.492644a9.702934 9.702934 0 0 0 0.672396-15.660876zM460.991505 309.132075S444.751858 368.796609 401.352506 378.159089c-35.61147 7.745325-17.448259 129.457568-37.832932 109.030338-35.619982-35.577425-13.115984-222.061009 25.321254-259.255589 35.832765-34.641177 162.149647-133.543014 272.363062-20.17189 0 0 17.090782-10.213615 44.258998 15.405536 16.035375 15.150195 21.44008 37.279694 28.861973 53.876818 32.734636 73.197573 25.985138 178.227579-1.591622 208.953537l-11.915884-109.200565s-46.157028 38.556396-86.58592 6.809076A809.20768 809.20768 0 0 1 554.556728 306.408445s54.404522 78.815061 66.209759 87.41152c23.448757 16.937578-117.822558 2.298063-159.902652-84.68789z" fill="#FBFBFB" opacity=".25" p-id="8282"></path><path d="M673.715568 706.441692s233.091713 69.452581 255.340371 85.113457v8.511346s-61.596609 125.287009-280.874408 204.272296c0 0-140.335068 53.791705-323.431136-17.022691a532.81024 532.81024 0 0 1-221.294988-170.226914s250.999584-118.648159 306.408445-119.158839z" fill="#FBFBFB" p-id="8283"></path><path d="M652.692544 626.094589c-1.574599 1.787383-3.183243 3.489652-4.817421 5.191921a152.259463 152.259463 0 0 1-95.50581 53.19591 114.698895 114.698895 0 0 1-77.104281-13.703266 176.346571 176.346571 0 0 1-42.480126-29.874824c-24.470119 24.172222-29.125825 62.132824 7.59212 119.073727C497.922234 849.17696 525.073427 902.11753 563.068074 910.713989l69.554717-21.363478a68.022675 68.022675 0 0 0 22.938077-9.702934s0.212784-202.399801-1.480974-249.467542a8.230471 8.230471 0 0 0-1.38735-4.085446" fill="#FBCAB5" p-id="8284"></path><path d="M655.586402 622.860278c-0.953271 1.106475-1.915053 2.127836-2.893858 3.234311a8.230471 8.230471 0 0 1 1.38735 4.085446c1.702269 47.067742 1.480974 249.467542 1.480974 249.467542a68.022675 68.022675 0 0 1-22.938077 9.702934h22.980633V622.860278m-244.633097-5.532375v272.022608h176.184855c-37.994647-8.511346-89.190391-40.173552-146.735599-129.372454-36.717945-56.940903-32.062239-94.901504-7.592121-119.073727a229.287142 229.287142 0 0 1-21.831601-23.576427" fill="#FBD1C0" p-id="8285"></path><path d="M413.217322 705.760785H399.054443L486.465963 1012.850137l119.15884-42.556728z" fill="#78C8EF" p-id="8286"></path><path d="M653.330895 705.760785L477.954617 1012.850137h119.15884l70.380317-307.089352h-14.162879z" fill="#91D6F2" p-id="8287"></path><path d="M410.953304 699.036822L494.977309 1021.361483l-151.348749-122.903832a12.954268 12.954268 0 0 1 0.851134-17.363145l36.539207-36.598787a11.064749 11.064749 0 0 0-1.702269-17.022691l-59.281523-39.492644a9.702934 9.702934 0 0 1-0.672396-15.660876z" fill="#F2F2F2" p-id="8288"></path><path d="M655.560868 699.036822L588.602111 1012.850137l134.292013-114.392486a12.945757 12.945757 0 0 0-0.851135-17.363145l-36.530696-36.598787a11.064749 11.064749 0 0 1 1.702269-17.022691l59.273012-39.492644a9.702934 9.702934 0 0 0 0.672396-15.660876z" fill="#F2F2F2" p-id="8289"></path><path d="M687.606084 495.700773l25.346788 10.894522a22.572089 22.572089 0 0 0 29.483301-11.83077l16.111978-37.535035a36.258333 36.258333 0 0 0-18.929233-47.408195 50.038201 50.038201 0 0 0-65.724612 26.300058l-5.217455 12.171225a36.232799 36.232799 0 0 0 18.929233 47.408195" fill="#FCDFD0" p-id="8290"></path><path d="M372.66076 495.700773l-25.355299 10.894522a22.563577 22.563577 0 0 1-29.47479-11.83077l-16.111978-37.535035a36.266844 36.266844 0 0 1 18.920722-47.408195 50.004156 50.004156 0 0 1 65.707589 26.300058l5.234477 12.171225a36.24131 36.24131 0 0 1-18.920721 47.408195" fill="#FCDFD0" p-id="8291"></path><path d="M536.682903 685.418668c-103.217089 0-175.444369-117.371457-186.875106-214.230571V294.407447a126.1807 126.1807 0 0 1 125.712575-125.797689h132.513141A108.817555 108.817555 0 0 1 716.757443 277.46987v200.527304C700.287989 578.260826 636.146488 685.418668 536.682903 685.418668" fill="#FFDDC4" p-id="8292"></path><path d="M536.682903 685.418668c-103.217089 0-175.444369-117.371457-186.875106-214.230571V294.407447a126.1807 126.1807 0 0 1 125.712575-125.797689h132.513141c60.039032 0-61.154019 2.46829-61.154018 62.473277l-13.618153 245.892777c-16.469454 100.263652 102.859613 208.442856 3.404538 208.442856" fill="#FFECDD" p-id="8293"></path><path d="M447.313773 281.810656s-16.239648 59.664533-59.647511 69.027013c-35.61147 7.745325-17.448259 129.457568-37.832931 109.030339-35.619982-35.577425-13.115984-222.061009 25.321253-259.25559 35.832765-34.641177 162.149647-133.543014 272.363062-20.171889 0 0 17.090782-10.213615 44.258998 15.405535 16.035375 15.150195 21.448591 37.279694 28.861973 53.876819 32.734636 73.197573 25.99365 178.227579-1.591622 208.953536l-11.915884-109.200565s-46.165539 38.556396-86.585919 6.809077a808.662954 808.662954 0 0 1-79.598105-77.197906s54.404522 78.815061 66.218269 87.41152c23.457269 16.937578-117.814047 2.298063-159.851583-84.687889z" fill="#3F3834" p-id="8294"></path></svg>