<?xml version="1.0" standalone="no"?><!DOCTYPE svg PUBLIC "-//W3C//DTD SVG 1.1//EN" "http://www.w3.org/Graphics/SVG/1.1/DTD/svg11.dtd"><svg t="1605248966718" class="icon" viewBox="0 0 1024 1024" version="1.1" xmlns="http://www.w3.org/2000/svg" p-id="2137" xmlns:xlink="http://www.w3.org/1999/xlink" width="82" height="82"><defs><style type="text/css"></style></defs><path d="M512 531.2c137.6 0 214.4-176 214.4-294.4S630.4 19.2 512 19.2s-214.4 96-214.4 217.6c0 118.4 73.6 294.4 214.4 294.4z m374.4 198.4c-41.6-57.6-96-92.8-169.6-112L646.4 864c0 22.4-19.2 41.6-41.6 41.6-22.4 0-41.6-19.2-41.6-41.6V668.8c0-28.8-22.4-51.2-51.2-51.2-28.8 0-51.2 22.4-51.2 51.2V864c0 22.4-19.2 41.6-41.6 41.6-22.4 0-41.6-19.2-41.6-41.6l-70.4-246.4c-73.6 22.4-128 57.6-169.6 112-16 22.4-25.6 67.2-25.6 89.6v102.4c0 44.8 35.2 83.2 83.2 83.2H832c44.8 0 83.2-35.2 83.2-83.2V819.2c-3.2-22.4-12.8-67.2-28.8-89.6z" fill="#0093DD" p-id="2138"></path></svg>